<?xml version="1.0" encoding="UTF-8"?>
<svg version="1.1" xmlns="http://www.w3.org/2000/svg" width="48" height="48">
<path d="M0 0 C1.80859375 0.80859375 1.80859375 0.80859375 2.80859375 2.80859375 C2.47859375 3.79859375 2.14859375 4.78859375 1.80859375 5.80859375 C2.79859375 5.80859375 3.78859375 5.80859375 4.80859375 5.80859375 C4.73898438 7.14664062 4.73898438 7.14664062 4.66796875 8.51171875 C4.631875 9.6821875 4.59578125 10.85265625 4.55859375 12.05859375 C4.48898438 13.79882812 4.48898438 13.79882812 4.41796875 15.57421875 C4.54232594 18.84556779 4.54232594 18.84556779 6.51171875 21.10546875 C10.958699 24.40288948 14.03665808 25.08319308 19.49609375 24.30859375 C22.3828125 23.90234375 22.3828125 23.90234375 24.80859375 23.80859375 C26.80859375 25.80859375 26.80859375 25.80859375 26.80859375 28.80859375 C27.46859375 29.13859375 28.12859375 29.46859375 28.80859375 29.80859375 C28.58713403 33.68413881 27.87145582 34.74852555 24.99609375 37.49609375 C18.64544102 42.10343004 13.62870881 42.79588328 5.80859375 41.80859375 C1.90526678 40.31712364 -2.25719541 38.67701544 -4.19140625 34.80859375 C-5.33609375 34.28265625 -5.33609375 34.28265625 -6.50390625 33.74609375 C-10.87905418 30.59191733 -12.6562752 25.98370464 -13.54296875 20.72265625 C-13.80861677 14.6127517 -12.38149586 9.30092503 -8.3515625 4.71484375 C-3.04466329 -0.26593316 -3.04466329 -0.26593316 0 0 Z M-4.19140625 6.80859375 C-7.90453245 11.47994606 -9.53763699 15.74955572 -9.19140625 21.80859375 C-8.20140625 23.29359375 -8.20140625 23.29359375 -7.19140625 24.80859375 C-7.08183594 24.07253906 -6.97226563 23.33648438 -6.859375 22.578125 C-5.28455212 12.8859224 -5.28455212 12.8859224 -2.19140625 8.80859375 C-2.85140625 8.14859375 -3.51140625 7.48859375 -4.19140625 6.80859375 Z M15.80859375 29.80859375 C19.80859375 30.80859375 19.80859375 30.80859375 19.80859375 30.80859375 Z " fill="#9BA4D5" transform="translate(17.19140625,4.19140625)"/>
<path d="M0 0 C0.99 0 1.98 0 3 0 C3.309375 1.0828125 3.309375 1.0828125 3.625 2.1875 C5.74710379 6.52816684 9.06136932 9.02745361 13.34375 11.17578125 C16.43418044 12.13472364 18.49984527 11.95227298 21.6875 11.5 C24.57421875 11.09375 24.57421875 11.09375 27 11 C29 13 29 13 29 16 C29.66 16.33 30.32 16.66 31 17 C30.77854028 20.87554506 30.06286207 21.9399318 27.1875 24.6875 C20.84567272 29.28843352 15.81171021 30.00450206 8 29 C4.72555631 27.68195605 1.87807626 26.03500341 -1 24 C-0.505 22.515 -0.505 22.515 0 21 C0.54914062 21.15984375 1.09828125 21.3196875 1.6640625 21.484375 C7.37688949 22.74540036 13.16359723 22.69656657 18.625 20.625 C21.09308156 19.21853932 21.09308156 19.21853932 22 17 C21.030625 17.103125 20.06125 17.20625 19.0625 17.3125 C12.90966983 17.3125 7.83786171 13.79073705 3.5625 9.625 C1.66202636 6.43220428 0.84957624 3.610699 0 0 Z " fill="#1B1D43" transform="translate(15,17)"/>
<path d="M0 0 C1.80859375 0.80859375 1.80859375 0.80859375 2.80859375 2.80859375 C1.8728038 5.16841188 0.87511567 7.50490639 -0.19140625 9.80859375 C-1.51140625 9.14859375 -2.83140625 8.48859375 -4.19140625 7.80859375 C-7.43000998 12.90974212 -8.7511537 16.67418205 -7.75390625 22.69921875 C-6.97259189 25.62914761 -5.64288874 28.15806051 -4.19140625 30.80859375 C-4.19140625 31.79859375 -4.19140625 32.78859375 -4.19140625 33.80859375 C-5.94140625 33.74609375 -5.94140625 33.74609375 -8.19140625 32.80859375 C-12.28719322 27.25716123 -13.83377631 21.70171868 -13.19140625 14.80859375 C-12.00653399 8.57616568 -8.91026738 5.08512465 -4.2265625 0.9609375 C-2.19140625 -0.19140625 -2.19140625 -0.19140625 0 0 Z " fill="#18193E" transform="translate(17.19140625,4.19140625)"/>
<path d="M0 0 C-0.22145972 3.87554506 -0.93713793 4.9399318 -3.8125 7.6875 C-10.21781562 12.33449368 -15.13649454 12.7234425 -23 12 C-25.36974789 11.24360446 -26.91577651 10.38948233 -29 9 C-26.09617026 8.14323942 -23.75882863 7.9872722 -20.75 8.1875 C-14.40156292 8.26059056 -10.04479159 5.63583327 -5.1875 1.75 C-3 0 -3 0 0 0 Z " fill="#97A0D1" transform="translate(46,34)"/>
<path d="M0 0 C0.66 0.33 1.32 0.66 2 1 C1 4 1 4 -1 5.1875 C-7.61650241 6.9794694 -13.59498457 6.18043078 -20 4 C-19.67 3.01 -19.34 2.02 -19 1 C-18.4534375 1.16113281 -17.906875 1.32226562 -17.34375 1.48828125 C-14.6772975 2.07045671 -12.22853911 2.16876003 -9.5 2.1875 C-8.5615625 2.20167969 -7.623125 2.21585938 -6.65625 2.23046875 C-3.92246734 1.9932729 -2.39627126 1.24543046 0 0 Z " fill="#22244A" transform="translate(34,37)"/>
</svg>
