<?xml version="1.0" encoding="iso-8859-1"?>
<!-- Uploaded to: SVG Repo, www.svgrepo.com, Generator: SVG Repo Mixer Tools -->
<svg version="1.1" id="Layer_1" xmlns="http://www.w3.org/2000/svg" xmlns:xlink="http://www.w3.org/1999/xlink" 
	 viewBox="0 0 512 512" xml:space="preserve">
<circle style="fill:#096C80;" cx="256" cy="256" r="256"/>
<g>
	<path style="fill:#064855;" d="M390.865,281.959h-3.046c0.509,0.016,1.012,0.054,1.522,0.054S390.357,281.975,390.865,281.959z"/>
	<path style="fill:#064855;" d="M124.181,281.959h-3.046c0.509,0.016,1.012,0.054,1.524,0.054S123.673,281.975,124.181,281.959z"/>
	<path style="fill:#064855;" d="M433.815,256c-9.81,15.297-25.336,25.403-42.949,25.959c-0.506,0.016-1.01,0.054-1.522,0.054
		s-1.016-0.037-1.524-0.054c-17.613-0.556-33.124-10.662-42.903-25.959c-9.81,15.297-25.337,25.403-42.949,25.959
		c-0.493,0.016-0.996,0.054-1.508,0.054c-0.527,0-1.031-0.037-1.539-0.054c-17.613-0.556-33.124-10.662-42.903-25.959
		c-9.81,15.297-25.321,25.403-42.948,25.959c-0.494,0.016-0.997,0.054-1.509,0.054c-0.527,0-1.031-0.037-1.539-0.054
		c-17.598-0.556-33.125-10.662-42.903-25.959c-9.81,15.297-25.321,25.403-42.935,25.959c-0.507,0.016-1.011,0.054-1.522,0.054
		c-0.513,0-1.017-0.037-1.526-0.054c-17.612-0.556-33.138-10.662-42.917-25.959c-9.796,15.297-25.321,25.402-42.934,25.959
		c9.061,77.521,58.169,142.984,126.022,175.079c0-0.01,190.489-0.533,190.489-0.533c67.282-32.28,115.913-97.445,124.923-174.546
		C459.104,281.402,443.58,271.297,433.815,256z"/>
	<path style="fill:#064855;" d="M301.965,281.959h-3.033c0.506,0.016,1.007,0.053,1.517,0.053
		C300.959,282.012,301.46,281.975,301.965,281.959z"/>
	<path style="fill:#064855;" d="M213.067,281.959h-3.033c0.505,0.016,1.007,0.053,1.516,0.053
		C212.059,282.012,212.561,281.975,213.067,281.959z"/>
</g>
<g>
	<path style="fill:#FFE1A0;" d="M177.231,111.402h-33.758c-4.661,0-8.44-3.778-8.44-8.44c0-4.662,3.779-8.44,8.44-8.44h33.758
		c4.661,0,8.44,3.778,8.44,8.44C185.67,107.625,181.892,111.402,177.231,111.402z"/>
	<path style="fill:#FFE1A0;" d="M152.042,154.468c-3.312,0-6.455-1.961-7.8-5.212c-1.784-4.306,0.261-9.243,4.568-11.027
		l25.193-10.435c4.308-1.782,9.243,0.26,11.027,4.567c1.784,4.308-0.261,9.243-4.567,11.027l-25.193,10.435
		C154.211,154.259,153.117,154.468,152.042,154.468z"/>
	<path style="fill:#FFE1A0;" d="M177.229,78.778c-1.077,0-2.171-0.207-3.226-0.645l-25.194-10.436
		c-4.306-1.784-6.351-6.72-4.568-11.027c1.782-4.306,6.721-6.354,11.027-4.567l25.194,10.436c4.306,1.784,6.351,6.721,4.568,11.027
		C183.683,76.817,180.54,78.778,177.229,78.778z"/>
	<path style="fill:#FFE1A0;" d="M368.527,111.402h-33.758c-4.662,0-8.44-3.778-8.44-8.44c0-4.662,3.778-8.44,8.44-8.44h33.758
		c4.662,0,8.44,3.778,8.44,8.44C376.967,107.625,373.19,111.402,368.527,111.402z"/>
	<path style="fill:#FFE1A0;" d="M359.959,154.468c-1.077,0-2.171-0.207-3.226-0.645l-25.193-10.435
		c-4.306-1.784-6.352-6.72-4.567-11.027c1.785-4.305,6.725-6.353,11.027-4.567l25.193,10.435c4.306,1.784,6.352,6.72,4.567,11.027
		C366.412,152.504,363.27,154.468,359.959,154.468z"/>
	<path style="fill:#FFE1A0;" d="M334.772,78.778c-3.312,0-6.453-1.961-7.8-5.212c-1.785-4.305,0.26-9.243,4.567-11.027
		l25.194-10.436c4.306-1.784,9.243,0.26,11.027,4.567c1.785,4.305-0.26,9.243-4.567,11.027l-25.194,10.436
		C336.942,78.57,335.847,78.778,334.772,78.778z"/>
</g>
<polygon style="fill:#FFFFFF;" points="289.758,63.578 256,46.699 222.242,63.578 222.242,102.963 256,125.468 289.758,102.963 "/>
<rect x="222.242" y="102.963" style="fill:#FFD170;" width="67.516" height="56.264"/>
<path style="fill:#FF984C;" d="M292.571,111.402h-73.143c-4.661,0-8.44-3.778-8.44-8.44c0-4.662,3.779-8.44,8.44-8.44h73.143
	c4.662,0,8.44,3.778,8.44,8.44C301.011,107.625,297.233,111.402,292.571,111.402z"/>
<g>
	<polygon style="fill:#FFFFFF;" points="301.011,136.721 210.989,136.721 207.46,206.581 256,229.087 304.54,206.581 	"/>
	<polyline style="fill:#FFFFFF;" points="199.354,367.062 312.646,367.062 308.069,276.443 256,253.937 203.931,276.443 	"/>
</g>
<polygon style="fill:#FF7066;" points="304.54,206.581 207.46,206.581 203.931,276.443 308.069,276.443 "/>
<path style="fill:#FFD170;" d="M256,478.242c34.316,0,66.813-7.784,95.831-21.673l-0.036-0.056l-6.036-110.211H167.212
	l-5.908,110.725v0.072C190.034,470.652,222.128,478.242,256,478.242z"/>
<g>
	<circle style="fill:#FF984C;" cx="249.811" cy="430.98" r="8.44"/>
	<circle style="fill:#FF984C;" cx="216.053" cy="397.222" r="8.44"/>
</g>
<path style="fill:#FF5347;" d="M301.004,77.646c-1.268,0-2.556-0.287-3.769-0.893L256,56.134l-41.237,20.618
	c-4.17,2.085-9.239,0.395-11.323-3.774c-2.085-4.169-0.395-9.239,3.774-11.324l45.011-22.505c2.375-1.189,5.173-1.189,7.548,0
	l45.011,22.505c4.168,2.085,5.858,7.153,3.774,11.324C307.082,75.936,304.1,77.646,301.004,77.646z"/>
</svg>